<svg width="50" height="50" xmlns="http://www.w3.org/2000/svg">

 <g>
  <title>background</title>
  <rect fill="none" id="canvas_background" height="402" width="582" y="-1" x="-1"/>
 </g>
 <g>
  <title>Layer 1</title>
  <path id="svg_3" fill="#3f3f3f" d="m50,45.233c0,2.633 -2.134,4.767 -4.767,4.767l-40.466,0c-2.633,0 -4.767,-2.134 -4.767,-4.767l0,-40.466c0,-2.633 2.134,-4.767 4.767,-4.767l40.466,0c2.633,0 4.767,2.134 4.767,4.767l0,40.466z"/>
  <path fill="#000000" id="svg_4" opacity="0.2" d="m50,45.233l-0.009,-12.943l-17.067,-17.069l-8.782,7.713l-7.066,11.844l15.214,15.213l12.943,0.009c2.633,0 4.767,-2.134 4.767,-4.767z"/>
  <path id="svg_6" fill="#ff3a3a" d="m15.221,18.964c-0.521,-0.521 -0.521,-1.367 0,-1.888l1.854,-1.854c0.521,-0.521 1.367,-0.521 1.888,0l15.814,15.814c0.521,0.521 0.521,1.367 0,1.888l-1.854,1.854c-0.521,0.521 -1.367,0.521 -1.888,0l-15.814,-15.814z"/>
  <path id="svg_7" fill="#ff3a3a" d="m31.036,15.221c0.521,-0.521 1.367,-0.521 1.888,0l1.854,1.854c0.521,0.521 0.521,1.367 0,1.888l-15.814,15.816c-0.521,0.521 -1.367,0.521 -1.888,0l-1.854,-1.854c-0.521,-0.521 -0.521,-1.367 0,-1.888l15.814,-15.816z"/>
 </g>
</svg>