<?xml version="1.0" ?><!DOCTYPE svg  PUBLIC '-//W3C//DTD SVG 1.1//EN'  'http://www.w3.org/Graphics/SVG/1.1/DTD/svg11.dtd'><svg enable-background="new 0 0 24 24" height="24px" id="Layer_1" version="1.1" viewBox="0 0 24 24" width="24px" xml:space="preserve" xmlns="http://www.w3.org/2000/svg" xmlns:xlink="http://www.w3.org/1999/xlink"><g><path d="M23,0H1C0.4,0,0,0.4,0,1v22c0,0.6,0.4,1,1,1h22c0.6,0,1-0.4,1-1V1C24,0.4,23.6,0,23,0z M22,22H2V2h20V22z"/><path d="M9,18l3-3l3,3l3-3l-3-3l3-3l-3-3l-3,3L9,6L6,9l3,3l-3,3L9,18z M7.5,9L9,7.5l3,3l3-3L16.5,9l-3,3l3,3L15,16.5l-3-3l-3,3   L7.5,15l3-3L7.5,9z"/></g></svg>